<svg aria-roledescription="gitGraph" role="graphics-document document" viewBox="-224.75 -19 932.75 716.791015625" height="716.791015625" xmlns="http://www.w3.org/2000/svg" width="932.75" id="graphDiv"><style>#graphDiv{font-family:"trebuchet ms",verdana,arial,sans-serif;font-size:16px;fill:#333;}#graphDiv .error-icon{fill:#552222;}#graphDiv .error-text{fill:#552222;stroke:#552222;}#graphDiv .edge-thickness-normal{stroke-width:2px;}#graphDiv .edge-thickness-thick{stroke-width:3.5px;}#graphDiv .edge-pattern-solid{stroke-dasharray:0;}#graphDiv .edge-pattern-dashed{stroke-dasharray:3;}#graphDiv .edge-pattern-dotted{stroke-dasharray:2;}#graphDiv .marker{fill:#333333;stroke:#333333;}#graphDiv .marker.cross{stroke:#333333;}#graphDiv svg{font-family:"trebuchet ms",verdana,arial,sans-serif;font-size:16px;}#graphDiv .commit-id,#graphDiv .commit-msg,#graphDiv .branch-label{fill:lightgrey;color:lightgrey;font-family:'trebuchet ms',verdana,arial,sans-serif;font-family:var(--mermaid-font-family);}#graphDiv .branch-label0{fill:#ffffff;}#graphDiv .commit0{stroke:hsl(240, 100%, 46.2745098039%);fill:hsl(240, 100%, 46.2745098039%);}#graphDiv .commit-highlight0{stroke:hsl(60, 100%, 3.7254901961%);fill:hsl(60, 100%, 3.7254901961%);}#graphDiv .label0{fill:hsl(240, 100%, 46.2745098039%);}#graphDiv .arrow0{stroke:hsl(240, 100%, 46.2745098039%);}#graphDiv .branch-label1{fill:black;}#graphDiv .commit1{stroke:hsl(60, 100%, 43.5294117647%);fill:hsl(60, 100%, 43.5294117647%);}#graphDiv .commit-highlight1{stroke:rgb(0, 0, 160.5);fill:rgb(0, 0, 160.5);}#graphDiv .label1{fill:hsl(60, 100%, 43.5294117647%);}#graphDiv .arrow1{stroke:hsl(60, 100%, 43.5294117647%);}#graphDiv .branch-label2{fill:black;}#graphDiv .commit2{stroke:hsl(80, 100%, 46.2745098039%);fill:hsl(80, 100%, 46.2745098039%);}#graphDiv .commit-highlight2{stroke:rgb(48.8333333334, 0, 146.5000000001);fill:rgb(48.8333333334, 0, 146.5000000001);}#graphDiv .label2{fill:hsl(80, 100%, 46.2745098039%);}#graphDiv .arrow2{stroke:hsl(80, 100%, 46.2745098039%);}#graphDiv .branch-label3{fill:#ffffff;}#graphDiv .commit3{stroke:hsl(210, 100%, 46.2745098039%);fill:hsl(210, 100%, 46.2745098039%);}#graphDiv .commit-highlight3{stroke:rgb(146.5000000001, 73.2500000001, 0);fill:rgb(146.5000000001, 73.2500000001, 0);}#graphDiv .label3{fill:hsl(210, 100%, 46.2745098039%);}#graphDiv .arrow3{stroke:hsl(210, 100%, 46.2745098039%);}#graphDiv .branch-label4{fill:black;}#graphDiv .commit4{stroke:hsl(180, 100%, 46.2745098039%);fill:hsl(180, 100%, 46.2745098039%);}#graphDiv .commit-highlight4{stroke:rgb(146.5000000001, 0, 0);fill:rgb(146.5000000001, 0, 0);}#graphDiv .label4{fill:hsl(180, 100%, 46.2745098039%);}#graphDiv .arrow4{stroke:hsl(180, 100%, 46.2745098039%);}#graphDiv .branch-label5{fill:black;}#graphDiv .commit5{stroke:hsl(150, 100%, 46.2745098039%);fill:hsl(150, 100%, 46.2745098039%);}#graphDiv .commit-highlight5{stroke:rgb(146.5000000001, 0, 73.2500000001);fill:rgb(146.5000000001, 0, 73.2500000001);}#graphDiv .label5{fill:hsl(150, 100%, 46.2745098039%);}#graphDiv .arrow5{stroke:hsl(150, 100%, 46.2745098039%);}#graphDiv .branch-label6{fill:black;}#graphDiv .commit6{stroke:hsl(300, 100%, 46.2745098039%);fill:hsl(300, 100%, 46.2745098039%);}#graphDiv .commit-highlight6{stroke:rgb(0, 146.5000000001, 0);fill:rgb(0, 146.5000000001, 0);}#graphDiv .label6{fill:hsl(300, 100%, 46.2745098039%);}#graphDiv .arrow6{stroke:hsl(300, 100%, 46.2745098039%);}#graphDiv .branch-label7{fill:black;}#graphDiv .commit7{stroke:hsl(0, 100%, 46.2745098039%);fill:hsl(0, 100%, 46.2745098039%);}#graphDiv .commit-highlight7{stroke:rgb(0, 146.5000000001, 146.5000000001);fill:rgb(0, 146.5000000001, 146.5000000001);}#graphDiv .label7{fill:hsl(0, 100%, 46.2745098039%);}#graphDiv .arrow7{stroke:hsl(0, 100%, 46.2745098039%);}#graphDiv .branch{stroke-width:1;stroke:#333333;stroke-dasharray:2;}#graphDiv .commit-label{font-size:10px;fill:#000021;}#graphDiv .commit-label-bkg{font-size:10px;fill:#ffffde;opacity:0.5;}#graphDiv .tag-label{font-size:10px;fill:#131300;}#graphDiv .tag-label-bkg{fill:#ECECFF;stroke:hsl(240, 60%, 86.2745098039%);}#graphDiv .tag-hole{fill:#333;}#graphDiv .commit-merge{stroke:#ECECFF;fill:#ECECFF;}#graphDiv .commit-reverse{stroke:#ECECFF;fill:#ECECFF;stroke-width:3;}#graphDiv .commit-highlight-inner{stroke:#ECECFF;fill:#ECECFF;}#graphDiv .arrow{stroke-width:8;stroke-linecap:round;fill:none;}#graphDiv .gitTitleText{text-anchor:middle;font-size:18px;fill:#333;}#graphDiv :root{--mermaid-font-family:"trebuchet ms",verdana,arial,sans-serif;}</style><g></g><g class="commit-bullets"></g><g class="commit-labels"></g><g><line class="branch branch0" y2="0" x2="700" y1="0" x1="0"></line><rect transform="translate(-19, -9.5)" height="23" width="53" y="-1.5" x="-69" ry="4" rx="4" class="branchLabelBkg label0"></rect><g class="branchLabel"><g transform="translate(-79, -10.5)" class="label branch-label0"><text><tspan class="row" x="0" dy="1em" xml:space="preserve">main</tspan></text></g></g><line class="branch branch1" y2="90" x2="700" y1="90" x1="0"></line><rect transform="translate(-19, 80.5)" height="23" width="145.609375" y="-1.5" x="-161.609375" ry="4" rx="4" class="branchLabelBkg label1"></rect><g class="branchLabel"><g transform="translate(-171.609375, 79.5)" class="label branch-label1"><text><tspan class="row" x="0" dy="1em" xml:space="preserve">update-laravel-11</tspan></text></g></g><line class="branch branch2" y2="180" x2="700" y1="180" x1="0"></line><rect transform="translate(-19, 170.5)" height="23" width="148.796875" y="-1.5" x="-164.796875" ry="4" rx="4" class="branchLabelBkg label2"></rect><g class="branchLabel"><g transform="translate(-174.796875, 169.5)" class="label branch-label2"><text><tspan class="row" x="0" dy="1em" xml:space="preserve">switch-to-tailwind</tspan></text></g></g><line class="branch branch3" y2="270" x2="700" y1="270" x1="0"></line><rect transform="translate(-19, 260.5)" height="23" width="181.75" y="-1.5" x="-197.75" ry="4" rx="4" class="branchLabelBkg label3"></rect><g class="branchLabel"><g transform="translate(-207.75, 259.5)" class="label branch-label3"><text><tspan class="row" x="0" dy="1em" xml:space="preserve">update-auth-to-breeze</tspan></text></g></g><line class="branch branch4" y2="360" x2="700" y1="360" x1="0"></line><rect transform="translate(-19, 350.5)" height="23" width="168.015625" y="-1.5" x="-184.015625" ry="4" rx="4" class="branchLabelBkg label4"></rect><g class="branchLabel"><g transform="translate(-194.015625, 349.5)" class="label branch-label4"><text><tspan class="row" x="0" dy="1em" xml:space="preserve">update-color-palette</tspan></text></g></g><line class="branch branch5" y2="450" x2="700" y1="450" x1="0"></line><rect transform="translate(-19, 440.5)" height="23" width="157.125" y="-1.5" x="-173.125" ry="4" rx="4" class="branchLabelBkg label5"></rect><g class="branchLabel"><g transform="translate(-183.125, 439.5)" class="label branch-label5"><text><tspan class="row" x="0" dy="1em" xml:space="preserve">general-refactoring</tspan></text></g></g><line class="branch branch6" y2="540" x2="700" y1="540" x1="0"></line><rect transform="translate(-19, 530.5)" height="23" width="97.265625" y="-1.5" x="-113.265625" ry="4" rx="4" class="branchLabelBkg label6"></rect><g class="branchLabel"><g transform="translate(-123.265625, 529.5)" class="label branch-label6"><text><tspan class="row" x="0" dy="1em" xml:space="preserve">integration</tspan></text></g></g><line class="branch branch7" y2="630" x2="700" y1="630" x1="0"></line><rect transform="translate(-19, 620.5)" height="23" width="157.8125" y="-1.5" x="-173.8125" ry="4" rx="4" class="branchLabelBkg label7"></rect><g class="branchLabel"><g transform="translate(-183.8125, 619.5)" class="label branch-label7"><text><tspan class="row" x="0" dy="1em" xml:space="preserve">heroku-deployment</tspan></text></g></g></g><g class="commit-arrows"><path class="arrow arrow1" d="M 10 0 L 10 70 A 20 20, 0, 0, 0, 30 90 L 60 90"></path><path class="arrow arrow2" d="M 60 90 L 60 160 A 20 20, 0, 0, 0, 80 180 L 110 180"></path><path class="arrow arrow3" d="M 110 180 L 110 250 A 20 20, 0, 0, 0, 130 270 L 160 270"></path><path class="arrow arrow4" d="M 160 270 L 160 340 A 20 20, 0, 0, 0, 180 360 L 210 360"></path><path class="arrow arrow5" d="M 210 360 L 210 430 A 20 20, 0, 0, 0, 230 450 L 260 450"></path><path class="arrow arrow6" d="M 260 450 L 260 520 A 20 20, 0, 0, 0, 280 540 L 310 540"></path><path class="arrow arrow1" d="M 60 90 L 290 90 A 20 20, 0, 0, 1, 310 110 L 310 540"></path><path class="arrow arrow6" d="M 310 540 L 360 540"></path><path class="arrow arrow2" d="M 110 180 L 110 314 A 10 10, 0, 0, 0, 120 324 L 350 324 A 10 10, 0, 0, 1, 360 334 L 360 540"></path><path class="arrow arrow6" d="M 360 540 L 410 540"></path><path class="arrow arrow3" d="M 160 270 L 160 395 A 10 10, 0, 0, 0, 170 405 L 400 405 A 10 10, 0, 0, 1, 410 415 L 410 540"></path><path class="arrow arrow6" d="M 410 540 L 460 540"></path><path class="arrow arrow4" d="M 210 360 L 210 422 A 10 10, 0, 0, 0, 220 432 L 450 432 A 10 10, 0, 0, 1, 460 442 L 460 540"></path><path class="arrow arrow6" d="M 460 540 L 510 540"></path><path class="arrow arrow5" d="M 260 450 L 260 485 A 10 10, 0, 0, 0, 270 495 L 500 495 A 10 10, 0, 0, 1, 510 505 L 510 540"></path><path class="arrow arrow7" d="M 510 540 L 510 610 A 20 20, 0, 0, 0, 530 630 L 560 630"></path><path class="arrow arrow0" d="M 10 0 L 610 0"></path><path class="arrow arrow6" d="M 510 540 L 590 540 A 20 20, 0, 0, 0, 610 520 L 610 0"></path><path class="arrow arrow0" d="M 610 0 L 660 0"></path></g><g class="commit-bullets"><circle class="commit 0-0d25449 commit0" r="10" cy="0" cx="10"></circle><circle class="commit 1-9195e12 commit1" r="10" cy="90" cx="60"></circle><circle class="commit 2-6369896 commit2" r="10" cy="180" cx="110"></circle><circle class="commit 3-ae026ef commit3" r="10" cy="270" cx="160"></circle><circle class="commit 4-0f9e0a7 commit4" r="10" cy="360" cx="210"></circle><circle class="commit 5-dac3bd0 commit5" r="10" cy="450" cx="260"></circle><circle class="commit 6-eed192c commit6" r="9" cy="540" cx="310"></circle><circle class="commit commit-merge 6-eed192c commit6" r="6" cy="540" cx="310"></circle><circle class="commit 7-c712530 commit6" r="9" cy="540" cx="360"></circle><circle class="commit commit-merge 7-c712530 commit6" r="6" cy="540" cx="360"></circle><circle class="commit 8-1814ecb commit6" r="9" cy="540" cx="410"></circle><circle class="commit commit-merge 8-1814ecb commit6" r="6" cy="540" cx="410"></circle><circle class="commit 9-5a5908b commit6" r="9" cy="540" cx="460"></circle><circle class="commit commit-merge 9-5a5908b commit6" r="6" cy="540" cx="460"></circle><circle class="commit 10-a7f26e0 commit6" r="9" cy="540" cx="510"></circle><circle class="commit commit-merge 10-a7f26e0 commit6" r="6" cy="540" cx="510"></circle><circle class="commit 11-15964a7 commit7" r="10" cy="630" cx="560"></circle><circle class="commit 12-5f655d6 commit0" r="9" cy="0" cx="610"></circle><circle class="commit commit-merge 12-5f655d6 commit0" r="6" cy="0" cx="610"></circle><circle class="commit 13-2c2f854 commit0" r="10" cy="0" cx="660"></circle></g><g class="commit-labels"><g transform="translate(-28.762187500000003, 25.6240625) rotate(-45, 0, 0)"><rect height="15" width="49.953125" y="13.5" x="-14.9765625" class="commit-label-bkg"></rect><text class="commit-label" y="25" x="-12.9765625">0-0d25449</text></g><g transform="translate(-28.720625000000002, 25.586875) rotate(-45, 50, 90)"><rect height="15" width="49.84375" y="103.5" x="35.078125" class="commit-label-bkg"></rect><text class="commit-label" y="115" x="37.078125">1-9195e12</text></g><g transform="translate(-28.6375, 25.5125) rotate(-45, 100, 180)"><rect height="15" width="49.625" y="193.5" x="85.1875" class="commit-label-bkg"></rect><text class="commit-label" y="205" x="87.1875">2-6369896</text></g><g transform="translate(-28.23115234375, 25.14892578125) rotate(-45, 150, 270)"><rect height="15" width="48.5556640625" y="283.5" x="135.72216796875" class="commit-label-bkg"></rect><text class="commit-label" y="295" x="137.72216796875">3-ae026ef</text></g><g transform="translate(-28.1328125, 25.0609375) rotate(-45, 200, 360)"><rect height="15" width="48.296875" y="373.5" x="185.8515625" class="commit-label-bkg"></rect><text class="commit-label" y="385" x="187.8515625">4-0f9e0a7</text></g><g transform="translate(-28.904687499999998, 25.7515625) rotate(-45, 250, 450)"><rect height="15" width="50.328125" y="463.5" x="234.8359375" class="commit-label-bkg"></rect><text class="commit-label" y="475" x="236.8359375">5-dac3bd0</text></g><g transform="translate(-30.6384375, 27.3028125) rotate(-45, 550, 630)"><rect height="15" width="54.890625" y="643.5" x="532.5546875" class="commit-label-bkg"></rect><text class="commit-label" y="655" x="534.5546875">11-15964a7</text></g><g transform="translate(-29.931875, 26.670625) rotate(-45, 650, 0)"><rect height="15" width="53.03125" y="13.5" x="633.484375" class="commit-label-bkg"></rect><text class="commit-label" y="25" x="635.484375">13-2c2f854</text></g></g></svg>